<svg width="56" height="56" viewBox="0 0 56 56" fill="none" xmlns="http://www.w3.org/2000/svg">
<path d="M54.634 23.5694C55.1788 23.4787 55.5488 22.963 55.4387 22.4218C54.1464 16.0641 50.6827 10.3406 45.6256 6.24365C40.309 1.93649 33.5993 -0.274831 26.7636 0.0273119C19.9279 0.329454 13.4395 3.12414 8.52361 7.88359C3.60776 12.643 0.604815 19.0378 0.0818901 25.8601C-0.441035 32.6825 1.55226 39.4601 5.68533 44.9132C9.8184 50.3662 15.8051 54.1171 22.5149 55.4575C29.2247 56.7979 36.1931 55.635 42.104 52.1884C47.7264 48.91 52.0219 43.7813 54.2681 37.6948C54.4593 37.1767 54.1722 36.6106 53.6476 36.438L51.5578 35.7504C51.0332 35.5778 50.47 35.8642 50.2755 36.3811C48.3523 41.493 44.7241 45.7988 39.9884 48.5601C34.9641 51.4897 29.041 52.4782 23.3377 51.3389C17.6344 50.1995 12.5456 47.0113 9.03253 42.3762C5.51942 37.7411 3.82512 31.9801 4.26961 26.1811C4.71409 20.3821 7.2666 14.9466 11.4451 10.901C15.6235 6.85552 21.1387 4.48004 26.949 4.22321C32.7594 3.96639 38.4626 5.84601 42.9817 9.5071C47.2413 12.9579 50.1709 17.7664 51.2926 23.1117C51.406 23.6522 51.919 24.021 52.4638 23.9304L54.634 23.5694Z" fill="#B2E2FF"/>
</svg>
