<svg width="18" height="8" viewBox="0 0 18 8" fill="none" xmlns="http://www.w3.org/2000/svg">
<path d="M9.89619 5.0519C9.96516 5.01742 10.0299 4.97507 10.0892 4.9257L15.7403 0.216425C15.9081 0.0765832 16.1196 0 16.3381 0C17.2207 0 17.6106 1.1115 16.9214 1.6629L9.62469 7.50024C9.25948 7.79242 8.74052 7.79242 8.3753 7.50024L1.07862 1.6629C0.389379 1.1115 0.779274 0 1.66193 0C1.88037 0 2.0919 0.0765831 2.25971 0.216425L7.91084 4.9257C7.97008 4.97507 8.03483 5.01742 8.10381 5.0519L8.55278 5.27639C8.83431 5.41716 9.16569 5.41716 9.44721 5.27639L9.89619 5.0519Z" fill="#000066"/>
</svg>
