<svg width="6" height="14" viewBox="0 0 6 14" fill="none" xmlns="http://www.w3.org/2000/svg">
<path d="M3.79792 6.30223C3.76608 6.23429 3.72668 6.17015 3.68049 6.11102L0.152121 1.59472C0.0535468 1.46854 0 1.31302 0 1.15291C0 0.46325 0.877951 0.170601 1.29174 0.722326L5.55 6.4C5.81667 6.75556 5.81667 7.24444 5.55 7.6L1.29174 13.2777C0.877951 13.8294 0 13.5367 0 12.8471C0 12.687 0.0535469 12.5315 0.152121 12.4053L3.68049 7.88897C3.72668 7.82985 3.76608 7.76571 3.79792 7.69777L3.92605 7.42444C4.0521 7.15552 4.0521 6.84448 3.92605 6.57557L3.79792 6.30223Z" fill="#0000B3"/>
</svg>
